<svg xmlns="http://www.w3.org/2000/svg" width="512" height="512" viewBox="0 0 512 512" role="img" aria-label="Drishya logo mark">
  <defs>
    <linearGradient id="g" x1="96" y1="56" x2="416" y2="456" gradientUnits="userSpaceOnUse">
      <stop offset="0" stop-color="#1868D8"/>
      <stop offset="1" stop-color="#0B3D91"/>
    </linearGradient>
    <filter id="shadow" x="-20%" y="-20%" width="140%" height="140%">
      <feDropShadow dx="0" dy="12" stdDeviation="18" flood-color="#0B3D91" flood-opacity="0.16"/>
    </filter>
  </defs>
  
  <path d="M256 54 400 110v122c0 96-58 181-144 226C170 413 112 328 112 232V110L256 54Z" fill="url(#g)" filter="url(#shadow)"/>
  <path d="M256 139c76 0 132 50 160 117-28 67-84 117-160 117S124 323 96 256c28-67 84-117 160-117Z" fill="#FFFFFF" opacity="0.98"/>
  <circle cx="256" cy="256" r="78" fill="#DBEAFE"/>
  <circle cx="256" cy="256" r="54" fill="url(#g)"/>
  <path d="M234 216h66c13 0 24 11 24 24v32c0 13-11 24-24 24h-88c-13 0-24-11-24-24v-32c0-13 11-24 24-24h22Z" fill="#FFFFFF" opacity="0.96"/>
  <circle cx="256" cy="256" r="23" fill="url(#g)"/>
  <circle cx="291" cy="235" r="8" fill="#1868D8" opacity="0.75"/>
  <path d="M182 152h34M296 152h34M162 358h52M298 358h52" stroke="#FFFFFF" stroke-width="16" stroke-linecap="round" opacity="0.55"/>
</svg>